<svg xmlns="http://www.w3.org/2000/svg" width="284.70562744140625" height="270.82415771484375" viewBox="-36.64644241333008 -40.741302490234375 284.70562744140625 270.82415771484375"><title>Neo4j Graph Visualization</title><desc>Created using Neo4j (http://www.neo4j.com/)</desc><g class="layer relationships"><g class="relationship" transform="translate(138.5780247942999 201.08287945264436) rotate(253.9807183642306)"><path class="outline" fill="#A5ABB6" stroke="none" d="M 25 0.5 L 31.03436778982138 0.5 L 31.03436778982138 -0.5 L 25 -0.5 Z M 76.59686778982137 0.5 L 82.63123557964276 0.5 L 82.63123557964276 3.5 L 89.63123557964276 0 L 82.63123557964276 -3.5 L 82.63123557964276 -0.5 L 76.59686778982137 -0.5 Z"/><text text-anchor="middle" pointer-events="none" font-size="8px" fill="#000000" x="53.81561778982138" y="3" transform="rotate(180 53.81561778982138 0)" font-family="sans-serif">ACTED_IN</text></g><g class="relationship" transform="translate(219.0591802258298 112.64840804571026) rotate(190.9766461048216)"><path class="outline" fill="#A5ABB6" stroke="none" d="M 25 0.5 L 30.820883885258723 0.5 L 30.820883885258723 -0.5 L 25 -0.5 Z M 76.38338388525872 0.5 L 82.20426777051745 0.5 L 82.20426777051745 3.5 L 89.20426777051745 0 L 82.20426777051745 -3.5 L 82.20426777051745 -0.5 L 76.38338388525872 -0.5 Z"/><text text-anchor="middle" pointer-events="none" font-size="8px" fill="#000000" x="53.60213388525872" y="3" transform="rotate(180 53.60213388525872 0)" font-family="sans-serif">ACTED_IN</text></g><g class="relationship" transform="translate(177.10628537452587 -0.5070617170993843) rotate(487.5081493142902)"><path class="outline" fill="#A5ABB6" stroke="none" d="M 25 0.5 L 31.334908138833555 0.5 L 31.334908138833555 -0.5 L 25 -0.5 Z M 76.89740813883355 0.5 L 83.23231627766711 0.5 L 83.23231627766711 3.5 L 90.23231627766711 0 L 83.23231627766711 -3.5 L 83.23231627766711 -0.5 L 76.89740813883355 -0.5 Z"/><text text-anchor="middle" pointer-events="none" font-size="8px" fill="#000000" x="54.116158138833555" y="3" transform="rotate(180 54.116158138833555 0)" font-family="sans-serif">ACTED_IN</text></g><g class="relationship" transform="translate(56.93009385909924 -11.741303310710821) rotate(424.0219754580536)"><path class="outline" fill="#A5ABB6" stroke="none" d="M 25 0.5 L 35.70367724374825 0.5 L 35.70367724374825 -0.5 L 25 -0.5 Z M 71.47711474374825 0.5 L 82.1807919874965 0.5 L 82.1807919874965 3.5 L 89.1807919874965 0 L 82.1807919874965 -3.5 L 82.1807919874965 -0.5 L 71.47711474374825 -0.5 Z"/><text text-anchor="middle" pointer-events="none" font-size="8px" fill="#000000" x="53.59039599374825" y="3" font-family="sans-serif">WROTE</text></g><g class="relationship" transform="translate(-7.6464440128471285 88.9218394998958) rotate(360.99044014802223)"><path class="outline" fill="#A5ABB6" stroke="none" d="M 25 0.5 L 35.91721169602928 0.5 L 35.91721169602928 -0.5 L 25 -0.5 Z M 71.69064919602928 0.5 L 82.60786089205855 0.5 L 82.60786089205855 3.5 L 89.60786089205855 0 L 82.60786089205855 -3.5 L 82.60786089205855 -0.5 L 71.69064919602928 -0.5 Z"/><text text-anchor="middle" pointer-events="none" font-size="8px" fill="#000000" x="53.80393044602928" y="3" font-family="sans-serif">WROTE</text></g><g class="relationship" transform="translate(35.97196033688779 183.45312501035895) rotate(307.4828708833049)"><path class="outline" fill="#A5ABB6" stroke="none" d="M 25 0.5 L 31.369813556425207 0.5 L 31.369813556425207 -0.5 L 25 -0.5 Z M 78.26043855642521 0.5 L 84.63025211285041 0.5 L 84.63025211285041 3.5 L 91.63025211285041 0 L 84.63025211285041 -3.5 L 84.63025211285041 -0.5 L 78.26043855642521 -0.5 Z"/><text text-anchor="middle" pointer-events="none" font-size="8px" fill="#000000" x="54.81512605642521" y="3" font-family="sans-serif">DIRECTED</text></g></g><g class="layer nodes"><g class="node" transform="translate(138.5780247942999,201.08287945264436)"><circle class="outline" cx="0" cy="0" r="25" fill="#F79767" stroke="#f36924" stroke-width="2px"/><text text-anchor="middle" pointer-events="none" font-family="sans-serif" dy="1.5625" font-size="25" fill="#FFFFFF"/><text text-anchor="middle" pointer-events="none" font-family="sans-serif" dy="1.5625" font-size="25" fill="#FFFFFF"/><text text-anchor="middle" pointer-events="none" font-family="sans-serif" dy="1.5625" font-size="25" fill="#FFFFFF"/><text text-anchor="middle" pointer-events="none" y="-5" font-size="10px" fill="#FFFFFF" font-family="sans-serif"> Samuel</text><text text-anchor="middle" pointer-events="none" y="5" font-size="10px" fill="#FFFFFF" font-family="sans-serif"> L.</text><text text-anchor="middle" pointer-events="none" y="15" font-size="10px" fill="#FFFFFF" font-family="sans-serif"> Jackson</text></g><g class="node" transform="translate(106.9442936841412,90.90290292983994)"><circle class="outline" cx="0" cy="0" r="25" fill="#57C7E3" stroke="#23b3d7" stroke-width="2px"/><text text-anchor="middle" pointer-events="none" font-family="sans-serif" dy="1.5625" font-size="25" fill="#2A2C34"/><text text-anchor="middle" pointer-events="none" font-family="sans-serif" dy="1.5625" font-size="25" fill="#2A2C34"/><text text-anchor="middle" pointer-events="none" font-family="sans-serif" dy="1.5625" font-size="25" fill="#2A2C34"/><text text-anchor="middle" pointer-events="none" y="-5" font-size="10px" fill="#2A2C34" font-family="sans-serif"> Captain</text><text text-anchor="middle" pointer-events="none" y="5" font-size="10px" fill="#2A2C34" font-family="sans-serif"> America:</text><text text-anchor="middle" pointer-events="none" y="15" font-size="10px" fill="#2A2C34" font-family="sans-serif"> The Fi…</text></g><g class="node" transform="translate(219.0591802258298,112.64840804571026)"><circle class="outline" cx="0" cy="0" r="25" fill="#F79767" stroke="#f36924" stroke-width="2px"/><text text-anchor="middle" pointer-events="none" font-family="sans-serif" dy="1.5625" font-size="25" fill="#FFFFFF"/><text text-anchor="middle" pointer-events="none" font-family="sans-serif" dy="1.5625" font-size="25" fill="#FFFFFF"/><text text-anchor="middle" pointer-events="none" y="0" font-size="10px" fill="#FFFFFF" font-family="sans-serif"> Hugo</text><text text-anchor="middle" pointer-events="none" y="10" font-size="10px" fill="#FFFFFF" font-family="sans-serif"> Weaving</text></g><g class="node" transform="translate(177.10628537452587,-0.5070617170993843)"><circle class="outline" cx="0" cy="0" r="25" fill="#F79767" stroke="#f36924" stroke-width="2px"/><text text-anchor="middle" pointer-events="none" font-family="sans-serif" dy="1.5625" font-size="25" fill="#FFFFFF"/><text text-anchor="middle" pointer-events="none" font-family="sans-serif" dy="1.5625" font-size="25" fill="#FFFFFF"/><text text-anchor="middle" pointer-events="none" y="0" font-size="10px" fill="#FFFFFF" font-family="sans-serif"> Chris</text><text text-anchor="middle" pointer-events="none" y="10" font-size="10px" fill="#FFFFFF" font-family="sans-serif"> Evans</text></g><g class="node" transform="translate(56.93009385909924,-11.741303310710821)"><circle class="outline" cx="0" cy="0" r="25" fill="#F79767" stroke="#f36924" stroke-width="2px"/><text text-anchor="middle" pointer-events="none" font-family="sans-serif" dy="1.5625" font-size="25" fill="#FFFFFF"/><text text-anchor="middle" pointer-events="none" font-family="sans-serif" dy="1.5625" font-size="25" fill="#FFFFFF"/><text text-anchor="middle" pointer-events="none" y="0" font-size="10px" fill="#FFFFFF" font-family="sans-serif"> Stephen</text><text text-anchor="middle" pointer-events="none" y="10" font-size="10px" fill="#FFFFFF" font-family="sans-serif"> McFeely</text></g><g class="node" transform="translate(-7.6464440128471285,88.9218394998958)"><circle class="outline" cx="0" cy="0" r="25" fill="#F79767" stroke="#f36924" stroke-width="2px"/><text text-anchor="middle" pointer-events="none" font-family="sans-serif" dy="1.5625" font-size="25" fill="#FFFFFF"/><text text-anchor="middle" pointer-events="none" y="5" font-size="10px" fill="#FFFFFF" font-family="sans-serif"> Christop…</text></g><g class="node" transform="translate(35.97196033688779,183.45312501035895)"><circle class="outline" cx="0" cy="0" r="25" fill="#F79767" stroke="#f36924" stroke-width="2px"/><text text-anchor="middle" pointer-events="none" font-family="sans-serif" dy="1.5625" font-size="25" fill="#FFFFFF"/><text text-anchor="middle" pointer-events="none" font-family="sans-serif" dy="1.5625" font-size="25" fill="#FFFFFF"/><text text-anchor="middle" pointer-events="none" y="0" font-size="10px" fill="#FFFFFF" font-family="sans-serif"> Joe</text><text text-anchor="middle" pointer-events="none" y="10" font-size="10px" fill="#FFFFFF" font-family="sans-serif"> Johnston</text></g></g></svg>